<?xml version="1.0" encoding="UTF-8" standalone="no"?>
<!DOCTYPE svg PUBLIC "-//W3C//DTD SVG 1.1//EN"
 "http://www.w3.org/Graphics/SVG/1.1/DTD/svg11.dtd">
<!-- Generated by graphviz version 2.40.1 (20161225.0304)
 -->
<!-- Title: dependencies Pages: 1 -->
<svg width="584pt" height="284pt"
 viewBox="0.00 0.00 584.00 284.00" xmlns="http://www.w3.org/2000/svg" xmlns:xlink="http://www.w3.org/1999/xlink">
<g id="graph0" class="graph" transform="scale(1 1) rotate(0) translate(4 280)">
<title>dependencies</title>
<polygon fill="#ffffff" stroke="transparent" points="-4,4 -4,-280 580,-280 580,4 -4,4"/>
<text text-anchor="start" x="267.0091" y="-42.4" font-family="sans-serif" font-weight="bold" font-size="14.00" fill="#000000">Legend</text>
<polygon fill="#ffffb3" stroke="transparent" points="54,-10 54,-30 74,-30 74,-10 54,-10"/>
<text text-anchor="start" x="77.629" y="-15.4" font-family="sans-serif" font-size="14.00" fill="#000000"> &#160;Declarations</text>
<polygon fill="#8dd3c7" stroke="transparent" points="167,-10 167,-30 187,-30 187,-10 167,-10"/>
<text text-anchor="start" x="190.7251" y="-15.4" font-family="sans-serif" font-size="14.00" fill="#000000"> &#160;Module</text>
<polygon fill="#80b1d3" stroke="transparent" points="253,-10 253,-30 273,-30 273,-10 253,-10"/>
<text text-anchor="start" x="276.7812" y="-15.4" font-family="sans-serif" font-size="14.00" fill="#000000"> &#160;Bootstrap</text>
<polygon fill="#fdb462" stroke="transparent" points="350,-10 350,-30 370,-30 370,-10 350,-10"/>
<text text-anchor="start" x="373.6732" y="-15.4" font-family="sans-serif" font-size="14.00" fill="#000000"> &#160;Providers</text>
<polygon fill="#fb8072" stroke="transparent" points="446,-10 446,-30 466,-30 466,-10 446,-10"/>
<text text-anchor="start" x="469.7258" y="-15.4" font-family="sans-serif" font-size="14.00" fill="#000000"> &#160;Exports</text>
<g id="clust1" class="cluster">
<title>cluster_DownModule</title>
<polygon fill="none" stroke="#000000" stroke-dasharray="1,5" points="8,-70 8,-268 568,-268 568,-70 8,-70"/>
</g>
<g id="clust2" class="cluster">
<title>cluster_DownModule_declarations</title>
<polygon fill="none" stroke="#000000" points="16,-78 16,-130 560,-130 560,-78 16,-78"/>
</g>
<g id="clust8" class="cluster">
<title>cluster_DownModule_exports</title>
<polygon fill="none" stroke="#000000" points="213,-208 213,-260 349,-260 349,-208 213,-208"/>
</g>
<!-- DownComponent -->
<g id="node1" class="node">
<title>DownComponent</title>
<polygon fill="#ffffb3" stroke="#000000" points="551.5465,-122 436.4535,-122 436.4535,-86 551.5465,-86 551.5465,-122"/>
<text text-anchor="middle" x="494" y="-99.8" font-family="Times,serif" font-size="14.00" fill="#000000">DownComponent</text>
</g>
<!-- DownModule -->
<g id="node5" class="node">
<title>DownModule</title>
<polygon fill="#8dd3c7" stroke="#000000" points="327.7633,-187 324.7633,-191 303.7633,-191 300.7633,-187 234.2367,-187 234.2367,-151 327.7633,-151 327.7633,-187"/>
<text text-anchor="middle" x="281" y="-164.8" font-family="Times,serif" font-size="14.00" fill="#000000">DownModule</text>
</g>
<!-- DownComponent&#45;&gt;DownModule -->
<g id="edge1" class="edge">
<title>DownComponent&#45;&gt;DownModule</title>
<path fill="none" stroke="#000000" d="M494,-122.1061C494,-141.3391 494,-169 494,-169 494,-169 338.0074,-169 338.0074,-169"/>
<polygon fill="#000000" stroke="#000000" points="338.0075,-165.5001 328.0074,-169 338.0074,-172.5001 338.0075,-165.5001"/>
</g>
<!-- TreeTopComponent -->
<g id="node2" class="node">
<title>TreeTopComponent</title>
<polygon fill="#ffffb3" stroke="#000000" points="417.5283,-122 288.4717,-122 288.4717,-86 417.5283,-86 417.5283,-122"/>
<text text-anchor="middle" x="353" y="-99.8" font-family="Times,serif" font-size="14.00" fill="#000000">TreeTopComponent</text>
</g>
<!-- TreeTopComponent&#45;&gt;DownModule -->
<g id="edge2" class="edge">
<title>TreeTopComponent&#45;&gt;DownModule</title>
<path fill="none" stroke="#000000" d="M308.0589,-122.1061C308.0589,-122.1061 308.0589,-140.991 308.0589,-140.991"/>
<polygon fill="#000000" stroke="#000000" points="304.559,-140.9909 308.0589,-150.991 311.559,-140.991 304.559,-140.9909"/>
</g>
<!-- BranchComponent -->
<g id="node3" class="node">
<title>BranchComponent</title>
<polygon fill="#ffffb3" stroke="#000000" points="269.759,-122 148.241,-122 148.241,-86 269.759,-86 269.759,-122"/>
<text text-anchor="middle" x="209" y="-99.8" font-family="Times,serif" font-size="14.00" fill="#000000">BranchComponent</text>
</g>
<!-- BranchComponent&#45;&gt;DownModule -->
<g id="edge3" class="edge">
<title>BranchComponent&#45;&gt;DownModule</title>
<path fill="none" stroke="#000000" d="M251.999,-122.1061C251.999,-122.1061 251.999,-140.991 251.999,-140.991"/>
<polygon fill="#000000" stroke="#000000" points="248.499,-140.9909 251.999,-150.991 255.499,-140.991 248.499,-140.9909"/>
</g>
<!-- LeafComponent -->
<g id="node4" class="node">
<title>LeafComponent</title>
<polygon fill="#ffffb3" stroke="#000000" points="130.4748,-122 23.5252,-122 23.5252,-86 130.4748,-86 130.4748,-122"/>
<text text-anchor="middle" x="77" y="-99.8" font-family="Times,serif" font-size="14.00" fill="#000000">LeafComponent</text>
</g>
<!-- LeafComponent&#45;&gt;DownModule -->
<g id="edge4" class="edge">
<title>LeafComponent&#45;&gt;DownModule</title>
<path fill="none" stroke="#000000" d="M77,-122.1061C77,-141.3391 77,-169 77,-169 77,-169 224.1983,-169 224.1983,-169"/>
<polygon fill="#000000" stroke="#000000" points="224.1983,-172.5001 234.1983,-169 224.1982,-165.5001 224.1983,-172.5001"/>
</g>
<!-- DownComponent  -->
<g id="node6" class="node">
<title>DownComponent </title>
<polygon fill="#fb8072" stroke="#000000" points="340.5456,-252 221.4544,-252 221.4544,-216 340.5456,-216 340.5456,-252"/>
<text text-anchor="middle" x="281" y="-229.8" font-family="Times,serif" font-size="14.00" fill="#000000">DownComponent </text>
</g>
<!-- DownModule&#45;&gt;DownComponent  -->
<g id="edge5" class="edge">
<title>DownModule&#45;&gt;DownComponent </title>
<path fill="none" stroke="#000000" stroke-dasharray="5,2" d="M281,-187.1061C281,-187.1061 281,-205.991 281,-205.991"/>
<polygon fill="#000000" stroke="#000000" points="277.5001,-205.9909 281,-215.991 284.5001,-205.991 277.5001,-205.9909"/>
</g>
</g>
</svg>
