<?xml version="1.0" encoding="UTF-8" standalone="no"?>
<!DOCTYPE svg PUBLIC "-//W3C//DTD SVG 1.1//EN"
 "http://www.w3.org/Graphics/SVG/1.1/DTD/svg11.dtd">
<!-- Generated by graphviz version 2.40.1 (20161225.0304)
 -->
<!-- Title: dependencies Pages: 1 -->
<svg width="729pt" height="284pt"
 viewBox="0.00 0.00 729.00 284.00" xmlns="http://www.w3.org/2000/svg" xmlns:xlink="http://www.w3.org/1999/xlink">
<g id="graph0" class="graph" transform="scale(1 1) rotate(0) translate(4 280)">
<title>dependencies</title>
<polygon fill="#ffffff" stroke="transparent" points="-4,4 -4,-280 725,-280 725,4 -4,4"/>
<text text-anchor="start" x="339.5091" y="-42.4" font-family="sans-serif" font-weight="bold" font-size="14.00" fill="#000000">Legend</text>
<polygon fill="#ffffb3" stroke="transparent" points="126.5,-10 126.5,-30 146.5,-30 146.5,-10 126.5,-10"/>
<text text-anchor="start" x="150.129" y="-15.4" font-family="sans-serif" font-size="14.00" fill="#000000"> &#160;Declarations</text>
<polygon fill="#8dd3c7" stroke="transparent" points="239.5,-10 239.5,-30 259.5,-30 259.5,-10 239.5,-10"/>
<text text-anchor="start" x="263.2251" y="-15.4" font-family="sans-serif" font-size="14.00" fill="#000000"> &#160;Module</text>
<polygon fill="#80b1d3" stroke="transparent" points="325.5,-10 325.5,-30 345.5,-30 345.5,-10 325.5,-10"/>
<text text-anchor="start" x="349.2812" y="-15.4" font-family="sans-serif" font-size="14.00" fill="#000000"> &#160;Bootstrap</text>
<polygon fill="#fdb462" stroke="transparent" points="422.5,-10 422.5,-30 442.5,-30 442.5,-10 422.5,-10"/>
<text text-anchor="start" x="446.1732" y="-15.4" font-family="sans-serif" font-size="14.00" fill="#000000"> &#160;Providers</text>
<polygon fill="#fb8072" stroke="transparent" points="518.5,-10 518.5,-30 538.5,-30 538.5,-10 518.5,-10"/>
<text text-anchor="start" x="542.2258" y="-15.4" font-family="sans-serif" font-size="14.00" fill="#000000"> &#160;Exports</text>
<g id="clust1" class="cluster">
<title>cluster_EventDemoModule</title>
<polygon fill="none" stroke="#000000" stroke-dasharray="1,5" points="8,-70 8,-268 713,-268 713,-70 8,-70"/>
</g>
<g id="clust2" class="cluster">
<title>cluster_EventDemoModule_declarations</title>
<polygon fill="none" stroke="#000000" points="16,-78 16,-130 705,-130 705,-78 16,-78"/>
</g>
<g id="clust8" class="cluster">
<title>cluster_EventDemoModule_exports</title>
<polygon fill="none" stroke="#000000" points="289,-208 289,-260 457,-260 457,-208 289,-208"/>
</g>
<!-- EventDemoComponent -->
<g id="node1" class="node">
<title>EventDemoComponent</title>
<polygon fill="#ffffb3" stroke="#000000" points="697.2021,-122 548.7979,-122 548.7979,-86 697.2021,-86 697.2021,-122"/>
<text text-anchor="middle" x="623" y="-99.8" font-family="Times,serif" font-size="14.00" fill="#000000">EventDemoComponent</text>
</g>
<!-- EventDemoModule -->
<g id="node5" class="node">
<title>EventDemoModule</title>
<polygon fill="#8dd3c7" stroke="#000000" points="436.4201,-187 433.4201,-191 412.4201,-191 409.4201,-187 309.5799,-187 309.5799,-151 436.4201,-151 436.4201,-187"/>
<text text-anchor="middle" x="373" y="-164.8" font-family="Times,serif" font-size="14.00" fill="#000000">EventDemoModule</text>
</g>
<!-- EventDemoComponent&#45;&gt;EventDemoModule -->
<g id="edge1" class="edge">
<title>EventDemoComponent&#45;&gt;EventDemoModule</title>
<path fill="none" stroke="#000000" d="M623,-122.1061C623,-141.3391 623,-169 623,-169 623,-169 446.4087,-169 446.4087,-169"/>
<polygon fill="#000000" stroke="#000000" points="446.4088,-165.5001 436.4087,-169 446.4087,-172.5001 446.4088,-165.5001"/>
</g>
<!-- EventParentComponent -->
<g id="node2" class="node">
<title>EventParentComponent</title>
<polygon fill="#ffffb3" stroke="#000000" points="530.7534,-122 381.2466,-122 381.2466,-86 530.7534,-86 530.7534,-122"/>
<text text-anchor="middle" x="456" y="-99.8" font-family="Times,serif" font-size="14.00" fill="#000000">EventParentComponent</text>
</g>
<!-- EventParentComponent&#45;&gt;EventDemoModule -->
<g id="edge2" class="edge">
<title>EventParentComponent&#45;&gt;EventDemoModule</title>
<path fill="none" stroke="#000000" d="M408.6666,-122.1061C408.6666,-122.1061 408.6666,-140.991 408.6666,-140.991"/>
<polygon fill="#000000" stroke="#000000" points="405.1666,-140.9909 408.6666,-150.991 412.1666,-140.991 405.1666,-140.9909"/>
</g>
<!-- EventChildComponent -->
<g id="node3" class="node">
<title>EventChildComponent</title>
<polygon fill="#ffffb3" stroke="#000000" points="363.608,-122 218.392,-122 218.392,-86 363.608,-86 363.608,-122"/>
<text text-anchor="middle" x="291" y="-99.8" font-family="Times,serif" font-size="14.00" fill="#000000">EventChildComponent</text>
</g>
<!-- EventChildComponent&#45;&gt;EventDemoModule -->
<g id="edge3" class="edge">
<title>EventChildComponent&#45;&gt;EventDemoModule</title>
<path fill="none" stroke="#000000" d="M336.6722,-122.1061C336.6722,-122.1061 336.6722,-140.991 336.6722,-140.991"/>
<polygon fill="#000000" stroke="#000000" points="333.1722,-140.9909 336.6722,-150.991 340.1722,-140.991 333.1722,-140.9909"/>
</g>
<!-- EventGrandchildComponent -->
<g id="node4" class="node">
<title>EventGrandchildComponent</title>
<polygon fill="#ffffb3" stroke="#000000" points="200.4678,-122 23.5322,-122 23.5322,-86 200.4678,-86 200.4678,-122"/>
<text text-anchor="middle" x="112" y="-99.8" font-family="Times,serif" font-size="14.00" fill="#000000">EventGrandchildComponent</text>
</g>
<!-- EventGrandchildComponent&#45;&gt;EventDemoModule -->
<g id="edge4" class="edge">
<title>EventGrandchildComponent&#45;&gt;EventDemoModule</title>
<path fill="none" stroke="#000000" d="M112,-122.1061C112,-141.3391 112,-169 112,-169 112,-169 299.486,-169 299.486,-169"/>
<polygon fill="#000000" stroke="#000000" points="299.486,-172.5001 309.486,-169 299.4859,-165.5001 299.486,-172.5001"/>
</g>
<!-- EventDemoComponent  -->
<g id="node6" class="node">
<title>EventDemoComponent </title>
<polygon fill="#fb8072" stroke="#000000" points="448.7023,-252 297.2977,-252 297.2977,-216 448.7023,-216 448.7023,-252"/>
<text text-anchor="middle" x="373" y="-229.8" font-family="Times,serif" font-size="14.00" fill="#000000">EventDemoComponent </text>
</g>
<!-- EventDemoModule&#45;&gt;EventDemoComponent  -->
<g id="edge5" class="edge">
<title>EventDemoModule&#45;&gt;EventDemoComponent </title>
<path fill="none" stroke="#000000" stroke-dasharray="5,2" d="M373,-187.1061C373,-187.1061 373,-205.991 373,-205.991"/>
<polygon fill="#000000" stroke="#000000" points="369.5001,-205.9909 373,-215.991 376.5001,-205.991 369.5001,-205.9909"/>
</g>
</g>
</svg>
