<?xml version="1.0" encoding="UTF-8" standalone="no"?>
<!DOCTYPE svg PUBLIC "-//W3C//DTD SVG 1.1//EN"
 "http://www.w3.org/Graphics/SVG/1.1/DTD/svg11.dtd">
<!-- Generated by graphviz version 2.40.1 (20161225.0304)
 -->
<!-- Title: dependencies Pages: 1 -->
<svg width="1029pt" height="284pt"
 viewBox="0.00 0.00 1029.00 284.00" xmlns="http://www.w3.org/2000/svg" xmlns:xlink="http://www.w3.org/1999/xlink">
<g id="graph0" class="graph" transform="scale(1 1) rotate(0) translate(4 280)">
<title>dependencies</title>
<polygon fill="#ffffff" stroke="transparent" points="-4,4 -4,-280 1025,-280 1025,4 -4,4"/>
<text text-anchor="start" x="489.5091" y="-42.4" font-family="sans-serif" font-weight="bold" font-size="14.00" fill="#000000">Legend</text>
<polygon fill="#ffffb3" stroke="transparent" points="276.5,-10 276.5,-30 296.5,-30 296.5,-10 276.5,-10"/>
<text text-anchor="start" x="300.129" y="-15.4" font-family="sans-serif" font-size="14.00" fill="#000000"> &#160;Declarations</text>
<polygon fill="#8dd3c7" stroke="transparent" points="389.5,-10 389.5,-30 409.5,-30 409.5,-10 389.5,-10"/>
<text text-anchor="start" x="413.2251" y="-15.4" font-family="sans-serif" font-size="14.00" fill="#000000"> &#160;Module</text>
<polygon fill="#80b1d3" stroke="transparent" points="475.5,-10 475.5,-30 495.5,-30 495.5,-10 475.5,-10"/>
<text text-anchor="start" x="499.2812" y="-15.4" font-family="sans-serif" font-size="14.00" fill="#000000"> &#160;Bootstrap</text>
<polygon fill="#fdb462" stroke="transparent" points="572.5,-10 572.5,-30 592.5,-30 592.5,-10 572.5,-10"/>
<text text-anchor="start" x="596.1732" y="-15.4" font-family="sans-serif" font-size="14.00" fill="#000000"> &#160;Providers</text>
<polygon fill="#fb8072" stroke="transparent" points="668.5,-10 668.5,-30 688.5,-30 688.5,-10 668.5,-10"/>
<text text-anchor="start" x="692.2258" y="-15.4" font-family="sans-serif" font-size="14.00" fill="#000000"> &#160;Exports</text>
<g id="clust1" class="cluster">
<title>cluster_BindingAndEventsDemoModule</title>
<polygon fill="none" stroke="#000000" stroke-dasharray="1,5" points="8,-70 8,-268 1013,-268 1013,-70 8,-70"/>
</g>
<g id="clust2" class="cluster">
<title>cluster_BindingAndEventsDemoModule_declarations</title>
<polygon fill="none" stroke="#000000" points="16,-78 16,-130 1005,-130 1005,-78 16,-78"/>
</g>
<g id="clust8" class="cluster">
<title>cluster_BindingAndEventsDemoModule_exports</title>
<polygon fill="none" stroke="#000000" points="403,-208 403,-260 645,-260 645,-208 403,-208"/>
</g>
<!-- BindingAndEventsDemoComponent -->
<g id="node1" class="node">
<title>BindingAndEventsDemoComponent</title>
<polygon fill="#ffffb3" stroke="#000000" points="997.371,-122 774.629,-122 774.629,-86 997.371,-86 997.371,-122"/>
<text text-anchor="middle" x="886" y="-99.8" font-family="Times,serif" font-size="14.00" fill="#000000">BindingAndEventsDemoComponent</text>
</g>
<!-- BindingAndEventsDemoModule -->
<g id="node5" class="node">
<title>BindingAndEventsDemoModule</title>
<polygon fill="#8dd3c7" stroke="#000000" points="624.5884,-187 621.5884,-191 600.5884,-191 597.5884,-187 423.4116,-187 423.4116,-151 624.5884,-151 624.5884,-187"/>
<text text-anchor="middle" x="524" y="-164.8" font-family="Times,serif" font-size="14.00" fill="#000000">BindingAndEventsDemoModule</text>
</g>
<!-- BindingAndEventsDemoComponent&#45;&gt;BindingAndEventsDemoModule -->
<g id="edge1" class="edge">
<title>BindingAndEventsDemoComponent&#45;&gt;BindingAndEventsDemoModule</title>
<path fill="none" stroke="#000000" d="M886,-122.1061C886,-141.3391 886,-169 886,-169 886,-169 634.8372,-169 634.8372,-169"/>
<polygon fill="#000000" stroke="#000000" points="634.8372,-165.5001 624.8372,-169 634.8371,-172.5001 634.8372,-165.5001"/>
</g>
<!-- BindingAndEventsParentComponent -->
<g id="node2" class="node">
<title>BindingAndEventsParentComponent</title>
<polygon fill="#ffffb3" stroke="#000000" points="756.4226,-122 531.5774,-122 531.5774,-86 756.4226,-86 756.4226,-122"/>
<text text-anchor="middle" x="644" y="-99.8" font-family="Times,serif" font-size="14.00" fill="#000000">BindingAndEventsParentComponent</text>
</g>
<!-- BindingAndEventsParentComponent&#45;&gt;BindingAndEventsDemoModule -->
<g id="edge2" class="edge">
<title>BindingAndEventsParentComponent&#45;&gt;BindingAndEventsDemoModule</title>
<path fill="none" stroke="#000000" d="M578.1666,-122.1061C578.1666,-122.1061 578.1666,-140.991 578.1666,-140.991"/>
<polygon fill="#000000" stroke="#000000" points="574.6666,-140.9909 578.1666,-150.991 581.6666,-140.991 574.6666,-140.9909"/>
</g>
<!-- BindingAndEventsChildComponent -->
<g id="node3" class="node">
<title>BindingAndEventsChildComponent</title>
<polygon fill="#ffffb3" stroke="#000000" points="513.7771,-122 294.2229,-122 294.2229,-86 513.7771,-86 513.7771,-122"/>
<text text-anchor="middle" x="404" y="-99.8" font-family="Times,serif" font-size="14.00" fill="#000000">BindingAndEventsChildComponent</text>
</g>
<!-- BindingAndEventsChildComponent&#45;&gt;BindingAndEventsDemoModule -->
<g id="edge3" class="edge">
<title>BindingAndEventsChildComponent&#45;&gt;BindingAndEventsDemoModule</title>
<path fill="none" stroke="#000000" d="M468.6722,-122.1061C468.6722,-122.1061 468.6722,-140.991 468.6722,-140.991"/>
<polygon fill="#000000" stroke="#000000" points="465.1722,-140.9909 468.6722,-150.991 472.1722,-140.991 465.1722,-140.9909"/>
</g>
<!-- BindingAndEventsGrandchildComponent -->
<g id="node4" class="node">
<title>BindingAndEventsGrandchildComponent</title>
<polygon fill="#ffffb3" stroke="#000000" points="275.6371,-122 24.3629,-122 24.3629,-86 275.6371,-86 275.6371,-122"/>
<text text-anchor="middle" x="150" y="-99.8" font-family="Times,serif" font-size="14.00" fill="#000000">BindingAndEventsGrandchildComponent</text>
</g>
<!-- BindingAndEventsGrandchildComponent&#45;&gt;BindingAndEventsDemoModule -->
<g id="edge4" class="edge">
<title>BindingAndEventsGrandchildComponent&#45;&gt;BindingAndEventsDemoModule</title>
<path fill="none" stroke="#000000" d="M150,-122.1061C150,-141.3391 150,-169 150,-169 150,-169 413.2829,-169 413.2829,-169"/>
<polygon fill="#000000" stroke="#000000" points="413.2829,-172.5001 423.2829,-169 413.2828,-165.5001 413.2829,-172.5001"/>
</g>
<!-- BindingAndEventsDemoComponent  -->
<g id="node6" class="node">
<title>BindingAndEventsDemoComponent </title>
<polygon fill="#fb8072" stroke="#000000" points="637.3713,-252 410.6287,-252 410.6287,-216 637.3713,-216 637.3713,-252"/>
<text text-anchor="middle" x="524" y="-229.8" font-family="Times,serif" font-size="14.00" fill="#000000">BindingAndEventsDemoComponent </text>
</g>
<!-- BindingAndEventsDemoModule&#45;&gt;BindingAndEventsDemoComponent  -->
<g id="edge5" class="edge">
<title>BindingAndEventsDemoModule&#45;&gt;BindingAndEventsDemoComponent </title>
<path fill="none" stroke="#000000" stroke-dasharray="5,2" d="M524,-187.1061C524,-187.1061 524,-205.991 524,-205.991"/>
<polygon fill="#000000" stroke="#000000" points="520.5001,-205.9909 524,-215.991 527.5001,-205.991 520.5001,-205.9909"/>
</g>
</g>
</svg>
