<?xml version="1.0" encoding="UTF-8" standalone="no"?>
<!DOCTYPE svg PUBLIC "-//W3C//DTD SVG 1.1//EN"
 "http://www.w3.org/Graphics/SVG/1.1/DTD/svg11.dtd">
<!-- Generated by graphviz version 2.40.1 (20161225.0304)
 -->
<!-- Title: dependencies Pages: 1 -->
<svg width="792pt" height="284pt"
 viewBox="0.00 0.00 792.00 284.00" xmlns="http://www.w3.org/2000/svg" xmlns:xlink="http://www.w3.org/1999/xlink">
<g id="graph0" class="graph" transform="scale(1 1) rotate(0) translate(4 280)">
<title>dependencies</title>
<polygon fill="#ffffff" stroke="transparent" points="-4,4 -4,-280 788,-280 788,4 -4,4"/>
<text text-anchor="start" x="371.0091" y="-42.4" font-family="sans-serif" font-weight="bold" font-size="14.00" fill="#000000">Legend</text>
<polygon fill="#ffffb3" stroke="transparent" points="158,-10 158,-30 178,-30 178,-10 158,-10"/>
<text text-anchor="start" x="181.629" y="-15.4" font-family="sans-serif" font-size="14.00" fill="#000000"> &#160;Declarations</text>
<polygon fill="#8dd3c7" stroke="transparent" points="271,-10 271,-30 291,-30 291,-10 271,-10"/>
<text text-anchor="start" x="294.7251" y="-15.4" font-family="sans-serif" font-size="14.00" fill="#000000"> &#160;Module</text>
<polygon fill="#80b1d3" stroke="transparent" points="357,-10 357,-30 377,-30 377,-10 357,-10"/>
<text text-anchor="start" x="380.7812" y="-15.4" font-family="sans-serif" font-size="14.00" fill="#000000"> &#160;Bootstrap</text>
<polygon fill="#fdb462" stroke="transparent" points="454,-10 454,-30 474,-30 474,-10 454,-10"/>
<text text-anchor="start" x="477.6732" y="-15.4" font-family="sans-serif" font-size="14.00" fill="#000000"> &#160;Providers</text>
<polygon fill="#fb8072" stroke="transparent" points="550,-10 550,-30 570,-30 570,-10 550,-10"/>
<text text-anchor="start" x="573.7258" y="-15.4" font-family="sans-serif" font-size="14.00" fill="#000000"> &#160;Exports</text>
<g id="clust1" class="cluster">
<title>cluster_AppModule</title>
<polygon fill="none" stroke="#000000" stroke-dasharray="1,5" points="8,-70 8,-268 776,-268 776,-70 8,-70"/>
</g>
<g id="clust2" class="cluster">
<title>cluster_AppModule_declarations</title>
<polygon fill="none" stroke="#000000" points="646,-78 646,-130 768,-130 768,-78 646,-78"/>
</g>
<g id="clust4" class="cluster">
<title>cluster_AppModule_imports</title>
<polygon fill="none" stroke="#000000" points="16,-78 16,-130 638,-130 638,-78 16,-78"/>
</g>
<g id="clust6" class="cluster">
<title>cluster_AppModule_bootstrap</title>
<polygon fill="none" stroke="#000000" points="319,-208 319,-260 443,-260 443,-208 319,-208"/>
</g>
<!-- AppComponent -->
<g id="node1" class="node">
<title>AppComponent</title>
<polygon fill="#ffffb3" stroke="#000000" points="759.9399,-122 654.0601,-122 654.0601,-86 759.9399,-86 759.9399,-122"/>
<text text-anchor="middle" x="707" y="-99.8" font-family="Times,serif" font-size="14.00" fill="#000000">AppComponent</text>
</g>
<!-- AppModule -->
<g id="node2" class="node">
<title>AppModule</title>
<polygon fill="#8dd3c7" stroke="#000000" points="422.6571,-187 419.6571,-191 398.6571,-191 395.6571,-187 339.3429,-187 339.3429,-151 422.6571,-151 422.6571,-187"/>
<text text-anchor="middle" x="381" y="-164.8" font-family="Times,serif" font-size="14.00" fill="#000000">AppModule</text>
</g>
<!-- AppComponent&#45;&gt;AppModule -->
<g id="edge1" class="edge">
<title>AppComponent&#45;&gt;AppModule</title>
<path fill="none" stroke="#000000" d="M707,-122.2843C707,-143.3211 707,-175 707,-175 707,-175 432.9514,-175 432.9514,-175"/>
<polygon fill="#000000" stroke="#000000" points="432.9514,-171.5001 422.9514,-175 432.9514,-178.5001 432.9514,-171.5001"/>
</g>
<!-- AppComponent  -->
<g id="node7" class="node">
<title>AppComponent </title>
<polygon fill="#80b1d3" stroke="#000000" points="435.439,-252 326.561,-252 326.561,-216 435.439,-216 435.439,-252"/>
<text text-anchor="middle" x="381" y="-229.8" font-family="Times,serif" font-size="14.00" fill="#000000">AppComponent </text>
</g>
<!-- AppModule&#45;&gt;AppComponent  -->
<g id="edge6" class="edge">
<title>AppModule&#45;&gt;AppComponent </title>
<path fill="none" stroke="#000000" stroke-dasharray="1,5" d="M381,-187.1061C381,-187.1061 381,-205.991 381,-205.991"/>
<polygon fill="#000000" stroke="#000000" points="377.5001,-205.9909 381,-215.991 384.5001,-205.991 377.5001,-205.9909"/>
</g>
<!-- InputBindingDemoModule -->
<g id="node3" class="node">
<title>InputBindingDemoModule</title>
<polygon fill="#8dd3c7" stroke="#000000" points="630.4312,-122 627.4312,-126 606.4312,-126 603.4312,-122 461.5688,-122 461.5688,-86 630.4312,-86 630.4312,-122"/>
<text text-anchor="middle" x="546" y="-99.8" font-family="Times,serif" font-size="14.00" fill="#000000">InputBindingDemoModule</text>
</g>
<!-- InputBindingDemoModule&#45;&gt;AppModule -->
<g id="edge2" class="edge">
<title>InputBindingDemoModule&#45;&gt;AppModule</title>
<path fill="none" stroke="#000000" d="M546,-122.0225C546,-139.3734 546,-163 546,-163 546,-163 433.0634,-163 433.0634,-163"/>
<polygon fill="#000000" stroke="#000000" points="433.0634,-159.5001 423.0634,-163 433.0634,-166.5001 433.0634,-159.5001"/>
</g>
<!-- EventDemoModule -->
<g id="node4" class="node">
<title>EventDemoModule</title>
<polygon fill="#8dd3c7" stroke="#000000" points="444.4201,-122 441.4201,-126 420.4201,-126 417.4201,-122 317.5799,-122 317.5799,-86 444.4201,-86 444.4201,-122"/>
<text text-anchor="middle" x="381" y="-99.8" font-family="Times,serif" font-size="14.00" fill="#000000">EventDemoModule</text>
</g>
<!-- EventDemoModule&#45;&gt;AppModule -->
<g id="edge3" class="edge">
<title>EventDemoModule&#45;&gt;AppModule</title>
<path fill="none" stroke="#000000" d="M381,-122.1061C381,-122.1061 381,-140.991 381,-140.991"/>
<polygon fill="#000000" stroke="#000000" points="377.5001,-140.9909 381,-150.991 384.5001,-140.991 377.5001,-140.9909"/>
</g>
<!-- BindingAndEventsDemoModule -->
<g id="node5" class="node">
<title>BindingAndEventsDemoModule</title>
<polygon fill="#8dd3c7" stroke="#000000" points="299.5884,-122 296.5884,-126 275.5884,-126 272.5884,-122 98.4116,-122 98.4116,-86 299.5884,-86 299.5884,-122"/>
<text text-anchor="middle" x="199" y="-99.8" font-family="Times,serif" font-size="14.00" fill="#000000">BindingAndEventsDemoModule</text>
</g>
<!-- BindingAndEventsDemoModule&#45;&gt;AppModule -->
<g id="edge4" class="edge">
<title>BindingAndEventsDemoModule&#45;&gt;AppModule</title>
<path fill="none" stroke="#000000" d="M199,-122.0225C199,-139.3734 199,-163 199,-163 199,-163 329.2455,-163 329.2455,-163"/>
<polygon fill="#000000" stroke="#000000" points="329.2456,-166.5001 339.2455,-163 329.2455,-159.5001 329.2456,-166.5001"/>
</g>
<!-- routing -->
<g id="node6" class="node">
<title>routing</title>
<polygon fill="#8dd3c7" stroke="#000000" points="80.4435,-122 77.4435,-126 56.4435,-126 53.4435,-122 23.5565,-122 23.5565,-86 80.4435,-86 80.4435,-122"/>
<text text-anchor="middle" x="52" y="-99.8" font-family="Times,serif" font-size="14.00" fill="#000000">routing</text>
</g>
<!-- routing&#45;&gt;AppModule -->
<g id="edge5" class="edge">
<title>routing&#45;&gt;AppModule</title>
<path fill="none" stroke="#000000" d="M52,-122.2843C52,-143.3211 52,-175 52,-175 52,-175 329.3319,-175 329.3319,-175"/>
<polygon fill="#000000" stroke="#000000" points="329.332,-178.5001 339.3319,-175 329.3319,-171.5001 329.332,-178.5001"/>
</g>
</g>
</svg>
