<?xml version="1.0" encoding="UTF-8" standalone="no"?>
<!DOCTYPE svg PUBLIC "-//W3C//DTD SVG 1.1//EN"
 "http://www.w3.org/Graphics/SVG/1.1/DTD/svg11.dtd">
<!-- Generated by graphviz version 2.40.1 (20161225.0304)
 -->
<!-- Title: dependencies Pages: 1 -->
<svg width="566pt" height="284pt"
 viewBox="0.00 0.00 566.00 284.00" xmlns="http://www.w3.org/2000/svg" xmlns:xlink="http://www.w3.org/1999/xlink">
<g id="graph0" class="graph" transform="scale(1 1) rotate(0) translate(4 280)">
<title>dependencies</title>
<polygon fill="#ffffff" stroke="transparent" points="-4,4 -4,-280 562,-280 562,4 -4,4"/>
<text text-anchor="start" x="258.0091" y="-42.4" font-family="sans-serif" font-weight="bold" font-size="14.00" fill="#000000">Legend</text>
<polygon fill="#ffffb3" stroke="transparent" points="45,-10 45,-30 65,-30 65,-10 45,-10"/>
<text text-anchor="start" x="68.629" y="-15.4" font-family="sans-serif" font-size="14.00" fill="#000000"> &#160;Declarations</text>
<polygon fill="#8dd3c7" stroke="transparent" points="158,-10 158,-30 178,-30 178,-10 158,-10"/>
<text text-anchor="start" x="181.7251" y="-15.4" font-family="sans-serif" font-size="14.00" fill="#000000"> &#160;Module</text>
<polygon fill="#80b1d3" stroke="transparent" points="244,-10 244,-30 264,-30 264,-10 244,-10"/>
<text text-anchor="start" x="267.7812" y="-15.4" font-family="sans-serif" font-size="14.00" fill="#000000"> &#160;Bootstrap</text>
<polygon fill="#fdb462" stroke="transparent" points="341,-10 341,-30 361,-30 361,-10 341,-10"/>
<text text-anchor="start" x="364.6732" y="-15.4" font-family="sans-serif" font-size="14.00" fill="#000000"> &#160;Providers</text>
<polygon fill="#fb8072" stroke="transparent" points="437,-10 437,-30 457,-30 457,-10 437,-10"/>
<text text-anchor="start" x="460.7258" y="-15.4" font-family="sans-serif" font-size="14.00" fill="#000000"> &#160;Exports</text>
<g id="clust1" class="cluster">
<title>cluster_UpModule</title>
<polygon fill="none" stroke="#000000" stroke-dasharray="1,5" points="8,-70 8,-268 550,-268 550,-70 8,-70"/>
</g>
<g id="clust2" class="cluster">
<title>cluster_UpModule_declarations</title>
<polygon fill="none" stroke="#000000" points="16,-78 16,-130 542,-130 542,-78 16,-78"/>
</g>
<g id="clust8" class="cluster">
<title>cluster_UpModule_exports</title>
<polygon fill="none" stroke="#000000" points="222,-208 222,-260 340,-260 340,-208 222,-208"/>
</g>
<!-- UpComponent -->
<g id="node1" class="node">
<title>UpComponent</title>
<polygon fill="#ffffb3" stroke="#000000" points="534.44,-122 435.56,-122 435.56,-86 534.44,-86 534.44,-122"/>
<text text-anchor="middle" x="485" y="-99.8" font-family="Times,serif" font-size="14.00" fill="#000000">UpComponent</text>
</g>
<!-- UpModule -->
<g id="node5" class="node">
<title>UpModule</title>
<polygon fill="#8dd3c7" stroke="#000000" points="319.1572,-187 316.1572,-191 295.1572,-191 292.1572,-187 242.8428,-187 242.8428,-151 319.1572,-151 319.1572,-187"/>
<text text-anchor="middle" x="281" y="-164.8" font-family="Times,serif" font-size="14.00" fill="#000000">UpModule</text>
</g>
<!-- UpComponent&#45;&gt;UpModule -->
<g id="edge1" class="edge">
<title>UpComponent&#45;&gt;UpModule</title>
<path fill="none" stroke="#000000" d="M485,-122.1061C485,-141.3391 485,-169 485,-169 485,-169 329.3708,-169 329.3708,-169"/>
<polygon fill="#000000" stroke="#000000" points="329.3709,-165.5001 319.3708,-169 329.3708,-172.5001 329.3709,-165.5001"/>
</g>
<!-- TreeTopComponent -->
<g id="node2" class="node">
<title>TreeTopComponent</title>
<polygon fill="#ffffb3" stroke="#000000" points="417.5283,-122 288.4717,-122 288.4717,-86 417.5283,-86 417.5283,-122"/>
<text text-anchor="middle" x="353" y="-99.8" font-family="Times,serif" font-size="14.00" fill="#000000">TreeTopComponent</text>
</g>
<!-- TreeTopComponent&#45;&gt;UpModule -->
<g id="edge2" class="edge">
<title>TreeTopComponent&#45;&gt;UpModule</title>
<path fill="none" stroke="#000000" d="M303.7822,-122.1061C303.7822,-122.1061 303.7822,-140.991 303.7822,-140.991"/>
<polygon fill="#000000" stroke="#000000" points="300.2823,-140.9909 303.7822,-150.991 307.2823,-140.991 300.2823,-140.9909"/>
</g>
<!-- BranchComponent -->
<g id="node3" class="node">
<title>BranchComponent</title>
<polygon fill="#ffffb3" stroke="#000000" points="269.759,-122 148.241,-122 148.241,-86 269.759,-86 269.759,-122"/>
<text text-anchor="middle" x="209" y="-99.8" font-family="Times,serif" font-size="14.00" fill="#000000">BranchComponent</text>
</g>
<!-- BranchComponent&#45;&gt;UpModule -->
<g id="edge3" class="edge">
<title>BranchComponent&#45;&gt;UpModule</title>
<path fill="none" stroke="#000000" d="M256.2756,-122.1061C256.2756,-122.1061 256.2756,-140.991 256.2756,-140.991"/>
<polygon fill="#000000" stroke="#000000" points="252.7757,-140.9909 256.2756,-150.991 259.7757,-140.991 252.7757,-140.9909"/>
</g>
<!-- LeafComponent -->
<g id="node4" class="node">
<title>LeafComponent</title>
<polygon fill="#ffffb3" stroke="#000000" points="130.4748,-122 23.5252,-122 23.5252,-86 130.4748,-86 130.4748,-122"/>
<text text-anchor="middle" x="77" y="-99.8" font-family="Times,serif" font-size="14.00" fill="#000000">LeafComponent</text>
</g>
<!-- LeafComponent&#45;&gt;UpModule -->
<g id="edge4" class="edge">
<title>LeafComponent&#45;&gt;UpModule</title>
<path fill="none" stroke="#000000" d="M77,-122.1061C77,-141.3391 77,-169 77,-169 77,-169 232.6292,-169 232.6292,-169"/>
<polygon fill="#000000" stroke="#000000" points="232.6292,-172.5001 242.6292,-169 232.6291,-165.5001 232.6292,-172.5001"/>
</g>
<!-- UpComponent  -->
<g id="node6" class="node">
<title>UpComponent </title>
<polygon fill="#fb8072" stroke="#000000" points="331.939,-252 230.061,-252 230.061,-216 331.939,-216 331.939,-252"/>
<text text-anchor="middle" x="281" y="-229.8" font-family="Times,serif" font-size="14.00" fill="#000000">UpComponent </text>
</g>
<!-- UpModule&#45;&gt;UpComponent  -->
<g id="edge5" class="edge">
<title>UpModule&#45;&gt;UpComponent </title>
<path fill="none" stroke="#000000" stroke-dasharray="5,2" d="M281,-187.1061C281,-187.1061 281,-205.991 281,-205.991"/>
<polygon fill="#000000" stroke="#000000" points="277.5001,-205.9909 281,-215.991 284.5001,-205.991 277.5001,-205.9909"/>
</g>
</g>
</svg>
