<?xml version="1.0" encoding="UTF-8" standalone="no"?>
<!DOCTYPE svg PUBLIC "-//W3C//DTD SVG 1.1//EN"
 "http://www.w3.org/Graphics/SVG/1.1/DTD/svg11.dtd">
<!-- Generated by graphviz version 2.40.1 (20161225.0304)
 -->
<!-- Title: dependencies Pages: 1 -->
<svg width="897pt" height="284pt"
 viewBox="0.00 0.00 897.00 284.00" xmlns="http://www.w3.org/2000/svg" xmlns:xlink="http://www.w3.org/1999/xlink">
<g id="graph0" class="graph" transform="scale(1 1) rotate(0) translate(4 280)">
<title>dependencies</title>
<polygon fill="#ffffff" stroke="transparent" points="-4,4 -4,-280 893,-280 893,4 -4,4"/>
<text text-anchor="start" x="423.5091" y="-42.4" font-family="sans-serif" font-weight="bold" font-size="14.00" fill="#000000">Legend</text>
<polygon fill="#ffffb3" stroke="transparent" points="210.5,-10 210.5,-30 230.5,-30 230.5,-10 210.5,-10"/>
<text text-anchor="start" x="234.129" y="-15.4" font-family="sans-serif" font-size="14.00" fill="#000000"> &#160;Declarations</text>
<polygon fill="#8dd3c7" stroke="transparent" points="323.5,-10 323.5,-30 343.5,-30 343.5,-10 323.5,-10"/>
<text text-anchor="start" x="347.2251" y="-15.4" font-family="sans-serif" font-size="14.00" fill="#000000"> &#160;Module</text>
<polygon fill="#80b1d3" stroke="transparent" points="409.5,-10 409.5,-30 429.5,-30 429.5,-10 409.5,-10"/>
<text text-anchor="start" x="433.2812" y="-15.4" font-family="sans-serif" font-size="14.00" fill="#000000"> &#160;Bootstrap</text>
<polygon fill="#fdb462" stroke="transparent" points="506.5,-10 506.5,-30 526.5,-30 526.5,-10 506.5,-10"/>
<text text-anchor="start" x="530.1732" y="-15.4" font-family="sans-serif" font-size="14.00" fill="#000000"> &#160;Providers</text>
<polygon fill="#fb8072" stroke="transparent" points="602.5,-10 602.5,-30 622.5,-30 622.5,-10 602.5,-10"/>
<text text-anchor="start" x="626.2258" y="-15.4" font-family="sans-serif" font-size="14.00" fill="#000000"> &#160;Exports</text>
<g id="clust1" class="cluster">
<title>cluster_InputBindingDemoModule</title>
<polygon fill="none" stroke="#000000" stroke-dasharray="1,5" points="8,-70 8,-268 881,-268 881,-70 8,-70"/>
</g>
<g id="clust2" class="cluster">
<title>cluster_InputBindingDemoModule_declarations</title>
<polygon fill="none" stroke="#000000" points="16,-78 16,-130 873,-130 873,-78 16,-78"/>
</g>
<g id="clust8" class="cluster">
<title>cluster_InputBindingDemoModule_exports</title>
<polygon fill="none" stroke="#000000" points="352,-208 352,-260 562,-260 562,-208 352,-208"/>
</g>
<!-- InputBindingDemoComponent -->
<g id="node1" class="node">
<title>InputBindingDemoComponent</title>
<polygon fill="#ffffb3" stroke="#000000" points="865.2133,-122 674.7867,-122 674.7867,-86 865.2133,-86 865.2133,-122"/>
<text text-anchor="middle" x="770" y="-99.8" font-family="Times,serif" font-size="14.00" fill="#000000">InputBindingDemoComponent</text>
</g>
<!-- InputBindingDemoModule -->
<g id="node5" class="node">
<title>InputBindingDemoModule</title>
<polygon fill="#8dd3c7" stroke="#000000" points="541.4312,-187 538.4312,-191 517.4312,-191 514.4312,-187 372.5688,-187 372.5688,-151 541.4312,-151 541.4312,-187"/>
<text text-anchor="middle" x="457" y="-164.8" font-family="Times,serif" font-size="14.00" fill="#000000">InputBindingDemoModule</text>
</g>
<!-- InputBindingDemoComponent&#45;&gt;InputBindingDemoModule -->
<g id="edge1" class="edge">
<title>InputBindingDemoComponent&#45;&gt;InputBindingDemoModule</title>
<path fill="none" stroke="#000000" d="M770,-122.1061C770,-141.3391 770,-169 770,-169 770,-169 551.29,-169 551.29,-169"/>
<polygon fill="#000000" stroke="#000000" points="551.29,-165.5001 541.29,-169 551.29,-172.5001 551.29,-165.5001"/>
</g>
<!-- InputBindingParentComponent -->
<g id="node2" class="node">
<title>InputBindingParentComponent</title>
<polygon fill="#ffffb3" stroke="#000000" points="656.7645,-122 465.2355,-122 465.2355,-86 656.7645,-86 656.7645,-122"/>
<text text-anchor="middle" x="561" y="-99.8" font-family="Times,serif" font-size="14.00" fill="#000000">InputBindingParentComponent</text>
</g>
<!-- InputBindingParentComponent&#45;&gt;InputBindingDemoModule -->
<g id="edge2" class="edge">
<title>InputBindingParentComponent&#45;&gt;InputBindingDemoModule</title>
<path fill="none" stroke="#000000" d="M503.1666,-122.1061C503.1666,-122.1061 503.1666,-140.991 503.1666,-140.991"/>
<polygon fill="#000000" stroke="#000000" points="499.6666,-140.9909 503.1666,-150.991 506.6666,-140.991 499.6666,-140.9909"/>
</g>
<!-- InputBindingChildComponent -->
<g id="node3" class="node">
<title>InputBindingChildComponent</title>
<polygon fill="#ffffb3" stroke="#000000" points="447.6192,-122 260.3808,-122 260.3808,-86 447.6192,-86 447.6192,-122"/>
<text text-anchor="middle" x="354" y="-99.8" font-family="Times,serif" font-size="14.00" fill="#000000">InputBindingChildComponent</text>
</g>
<!-- InputBindingChildComponent&#45;&gt;InputBindingDemoModule -->
<g id="edge3" class="edge">
<title>InputBindingChildComponent&#45;&gt;InputBindingDemoModule</title>
<path fill="none" stroke="#000000" d="M410.1722,-122.1061C410.1722,-122.1061 410.1722,-140.991 410.1722,-140.991"/>
<polygon fill="#000000" stroke="#000000" points="406.6722,-140.9909 410.1722,-150.991 413.6722,-140.991 406.6722,-140.9909"/>
</g>
<!-- InputBindingGrandchildComponent -->
<g id="node4" class="node">
<title>InputBindingGrandchildComponent</title>
<polygon fill="#ffffb3" stroke="#000000" points="242.479,-122 23.521,-122 23.521,-86 242.479,-86 242.479,-122"/>
<text text-anchor="middle" x="133" y="-99.8" font-family="Times,serif" font-size="14.00" fill="#000000">InputBindingGrandchildComponent</text>
</g>
<!-- InputBindingGrandchildComponent&#45;&gt;InputBindingDemoModule -->
<g id="edge4" class="edge">
<title>InputBindingGrandchildComponent&#45;&gt;InputBindingDemoModule</title>
<path fill="none" stroke="#000000" d="M133,-122.1061C133,-141.3391 133,-169 133,-169 133,-169 362.7186,-169 362.7186,-169"/>
<polygon fill="#000000" stroke="#000000" points="362.7186,-172.5001 372.7186,-169 362.7186,-165.5001 362.7186,-172.5001"/>
</g>
<!-- InputBindingDemoComponent  -->
<g id="node6" class="node">
<title>InputBindingDemoComponent </title>
<polygon fill="#fb8072" stroke="#000000" points="553.7134,-252 360.2866,-252 360.2866,-216 553.7134,-216 553.7134,-252"/>
<text text-anchor="middle" x="457" y="-229.8" font-family="Times,serif" font-size="14.00" fill="#000000">InputBindingDemoComponent </text>
</g>
<!-- InputBindingDemoModule&#45;&gt;InputBindingDemoComponent  -->
<g id="edge5" class="edge">
<title>InputBindingDemoModule&#45;&gt;InputBindingDemoComponent </title>
<path fill="none" stroke="#000000" stroke-dasharray="5,2" d="M457,-187.1061C457,-187.1061 457,-205.991 457,-205.991"/>
<polygon fill="#000000" stroke="#000000" points="453.5001,-205.9909 457,-215.991 460.5001,-205.991 453.5001,-205.9909"/>
</g>
</g>
</svg>
