<?xml version="1.0" encoding="UTF-8" standalone="no"?>
<!DOCTYPE svg PUBLIC "-//W3C//DTD SVG 1.1//EN"
 "http://www.w3.org/Graphics/SVG/1.1/DTD/svg11.dtd">
<!-- Generated by graphviz version 2.40.1 (20161225.0304)
 -->
<!-- Title: dependencies Pages: 1 -->
<svg width="624pt" height="284pt"
 viewBox="0.00 0.00 624.00 284.00" xmlns="http://www.w3.org/2000/svg" xmlns:xlink="http://www.w3.org/1999/xlink">
<g id="graph0" class="graph" transform="scale(1 1) rotate(0) translate(4 280)">
<title>dependencies</title>
<polygon fill="#ffffff" stroke="transparent" points="-4,4 -4,-280 620,-280 620,4 -4,4"/>
<text text-anchor="start" x="287.0091" y="-42.4" font-family="sans-serif" font-weight="bold" font-size="14.00" fill="#000000">Legend</text>
<polygon fill="#ffffb3" stroke="transparent" points="74,-10 74,-30 94,-30 94,-10 74,-10"/>
<text text-anchor="start" x="97.629" y="-15.4" font-family="sans-serif" font-size="14.00" fill="#000000"> &#160;Declarations</text>
<polygon fill="#8dd3c7" stroke="transparent" points="187,-10 187,-30 207,-30 207,-10 187,-10"/>
<text text-anchor="start" x="210.7251" y="-15.4" font-family="sans-serif" font-size="14.00" fill="#000000"> &#160;Module</text>
<polygon fill="#80b1d3" stroke="transparent" points="273,-10 273,-30 293,-30 293,-10 273,-10"/>
<text text-anchor="start" x="296.7812" y="-15.4" font-family="sans-serif" font-size="14.00" fill="#000000"> &#160;Bootstrap</text>
<polygon fill="#fdb462" stroke="transparent" points="370,-10 370,-30 390,-30 390,-10 370,-10"/>
<text text-anchor="start" x="393.6732" y="-15.4" font-family="sans-serif" font-size="14.00" fill="#000000"> &#160;Providers</text>
<polygon fill="#fb8072" stroke="transparent" points="466,-10 466,-30 486,-30 486,-10 466,-10"/>
<text text-anchor="start" x="489.7258" y="-15.4" font-family="sans-serif" font-size="14.00" fill="#000000"> &#160;Exports</text>
<g id="clust1" class="cluster">
<title>cluster_UpAndDownModule</title>
<polygon fill="none" stroke="#000000" stroke-dasharray="1,5" points="8,-70 8,-268 608,-268 608,-70 8,-70"/>
</g>
<g id="clust2" class="cluster">
<title>cluster_UpAndDownModule_declarations</title>
<polygon fill="none" stroke="#000000" points="16,-78 16,-130 600,-130 600,-78 16,-78"/>
</g>
<g id="clust8" class="cluster">
<title>cluster_UpAndDownModule_exports</title>
<polygon fill="none" stroke="#000000" points="193,-208 193,-260 369,-260 369,-208 193,-208"/>
</g>
<!-- UpAndDownComponent -->
<g id="node1" class="node">
<title>UpAndDownComponent</title>
<polygon fill="#ffffb3" stroke="#000000" points="592.259,-122 435.741,-122 435.741,-86 592.259,-86 592.259,-122"/>
<text text-anchor="middle" x="514" y="-99.8" font-family="Times,serif" font-size="14.00" fill="#000000">UpAndDownComponent</text>
</g>
<!-- UpAndDownModule -->
<g id="node5" class="node">
<title>UpAndDownModule</title>
<polygon fill="#8dd3c7" stroke="#000000" points="348.4762,-187 345.4762,-191 324.4762,-191 321.4762,-187 213.5238,-187 213.5238,-151 348.4762,-151 348.4762,-187"/>
<text text-anchor="middle" x="281" y="-164.8" font-family="Times,serif" font-size="14.00" fill="#000000">UpAndDownModule</text>
</g>
<!-- UpAndDownComponent&#45;&gt;UpAndDownModule -->
<g id="edge1" class="edge">
<title>UpAndDownComponent&#45;&gt;UpAndDownModule</title>
<path fill="none" stroke="#000000" d="M514,-122.1061C514,-141.3391 514,-169 514,-169 514,-169 358.7062,-169 358.7062,-169"/>
<polygon fill="#000000" stroke="#000000" points="358.7063,-165.5001 348.7062,-169 358.7062,-172.5001 358.7063,-165.5001"/>
</g>
<!-- TreeTopComponent -->
<g id="node2" class="node">
<title>TreeTopComponent</title>
<polygon fill="#ffffb3" stroke="#000000" points="417.5283,-122 288.4717,-122 288.4717,-86 417.5283,-86 417.5283,-122"/>
<text text-anchor="middle" x="353" y="-99.8" font-family="Times,serif" font-size="14.00" fill="#000000">TreeTopComponent</text>
</g>
<!-- TreeTopComponent&#45;&gt;UpAndDownModule -->
<g id="edge2" class="edge">
<title>TreeTopComponent&#45;&gt;UpAndDownModule</title>
<path fill="none" stroke="#000000" d="M318.3622,-122.1061C318.3622,-122.1061 318.3622,-140.991 318.3622,-140.991"/>
<polygon fill="#000000" stroke="#000000" points="314.8623,-140.9909 318.3622,-150.991 321.8623,-140.991 314.8623,-140.9909"/>
</g>
<!-- BranchComponent -->
<g id="node3" class="node">
<title>BranchComponent</title>
<polygon fill="#ffffb3" stroke="#000000" points="269.759,-122 148.241,-122 148.241,-86 269.759,-86 269.759,-122"/>
<text text-anchor="middle" x="209" y="-99.8" font-family="Times,serif" font-size="14.00" fill="#000000">BranchComponent</text>
</g>
<!-- BranchComponent&#45;&gt;UpAndDownModule -->
<g id="edge3" class="edge">
<title>BranchComponent&#45;&gt;UpAndDownModule</title>
<path fill="none" stroke="#000000" d="M241.6957,-122.1061C241.6957,-122.1061 241.6957,-140.991 241.6957,-140.991"/>
<polygon fill="#000000" stroke="#000000" points="238.1957,-140.9909 241.6957,-150.991 245.1957,-140.991 238.1957,-140.9909"/>
</g>
<!-- LeafComponent -->
<g id="node4" class="node">
<title>LeafComponent</title>
<polygon fill="#ffffb3" stroke="#000000" points="130.4748,-122 23.5252,-122 23.5252,-86 130.4748,-86 130.4748,-122"/>
<text text-anchor="middle" x="77" y="-99.8" font-family="Times,serif" font-size="14.00" fill="#000000">LeafComponent</text>
</g>
<!-- LeafComponent&#45;&gt;UpAndDownModule -->
<g id="edge4" class="edge">
<title>LeafComponent&#45;&gt;UpAndDownModule</title>
<path fill="none" stroke="#000000" d="M77,-122.1061C77,-141.3391 77,-169 77,-169 77,-169 203.3543,-169 203.3543,-169"/>
<polygon fill="#000000" stroke="#000000" points="203.3543,-172.5001 213.3543,-169 203.3543,-165.5001 203.3543,-172.5001"/>
</g>
<!-- UpAndDownComponent  -->
<g id="node6" class="node">
<title>UpAndDownComponent </title>
<polygon fill="#fb8072" stroke="#000000" points="361.259,-252 200.741,-252 200.741,-216 361.259,-216 361.259,-252"/>
<text text-anchor="middle" x="281" y="-229.8" font-family="Times,serif" font-size="14.00" fill="#000000">UpAndDownComponent </text>
</g>
<!-- UpAndDownModule&#45;&gt;UpAndDownComponent  -->
<g id="edge5" class="edge">
<title>UpAndDownModule&#45;&gt;UpAndDownComponent </title>
<path fill="none" stroke="#000000" stroke-dasharray="5,2" d="M281,-187.1061C281,-187.1061 281,-205.991 281,-205.991"/>
<polygon fill="#000000" stroke="#000000" points="277.5001,-205.9909 281,-215.991 284.5001,-205.991 277.5001,-205.9909"/>
</g>
</g>
</svg>
